{
    "asset" : {
        "generator" : "Khronos glTF Blender I/O v3.2.43",
        "version" : "2.0"
    },
    "extensionsUsed" : [
        "KHR_texture_transform"
    ],
    "extensionsRequired" : [
        "KHR_texture_transform"
    ],
    "scene" : 0,
    "scenes" : [
        {
            "name" : "Scene",
            "nodes" : [
                0
            ]
        }
    ],
    "nodes" : [
        {
            "mesh" : 0,
            "name" : "Cube"
        }
    ],
    "materials" : [
        {
            "doubleSided" : true,
            "name" : "Material.002",
            "normalTexture" : {
                "extensions" : {
                    "KHR_texture_transform" : {
                        "offset" : [
                            0,
                            -2
                        ],
                        "scale" : [
                            3,
                            3
                        ]
                    }
                },
                "index" : 0,
                "scale" : 0.6000000238418579
            },
            "pbrMetallicRoughness" : {
                "baseColorTexture" : {
                    "extensions" : {
                        "KHR_texture_transform" : {
                            "offset" : [
                                0,
                                -2
                            ],
                            "scale" : [
                                3,
                                3
                            ]
                        }
                    },
                    "index" : 1
                },
                "roughnessFactor" : 0.3272727131843567
            }
        },
        {
            "doubleSided" : true,
            "emissiveFactor" : [
                0.336500346660614,
                0.5313982963562012,
                1
            ],
            "name" : "Glow",
            "pbrMetallicRoughness" : {
                "baseColorFactor" : [
                    0,
                    0,
                    0,
                    1
                ]
            }
        },
        {
            "doubleSided" : true,
            "emissiveFactor" : [
                0.38132521510124207,
                1,
                0.3419146239757538
            ],
            "name" : "Glow.002",
            "pbrMetallicRoughness" : {
                "baseColorFactor" : [
                    0,
                    0,
                    0,
                    1
                ]
            }
        }
    ],
    "meshes" : [
        {
            "name" : "Cube",
            "primitives" : [
                {
                    "attributes" : {
                        "POSITION" : 0,
                        "NORMAL" : 1,
                        "TEXCOORD_0" : 2
                    },
                    "indices" : 3,
                    "material" : 0
                },
                {
                    "attributes" : {
                        "POSITION" : 4,
                        "NORMAL" : 5,
                        "TEXCOORD_0" : 6
                    },
                    "indices" : 7,
                    "material" : 1
                },
                {
                    "attributes" : {
                        "POSITION" : 8,
                        "NORMAL" : 9,
                        "TEXCOORD_0" : 10
                    },
                    "indices" : 11,
                    "material" : 2
                }
            ]
        }
    ],
    "textures" : [
        {
            "sampler" : 0,
            "source" : 0
        },
        {
            "sampler" : 0,
            "source" : 1
        }
    ],
    "images" : [
        {
            "mimeType" : "image/png",
            "name" : "sci-fi-panel1-normal-ogl",
            "uri" : "sci-fi-panel1-normal-ogl.png"
        },
        {
            "mimeType" : "image/png",
            "name" : "sci-fi-panel1-albedo",
            "uri" : "sci-fi-panel1-albedo.png"
        }
    ],
    "accessors" : [
        {
            "bufferView" : 0,
            "componentType" : 5126,
            "count" : 2124,
            "max" : [
                1,
                1,
                1
            ],
            "min" : [
                -1,
                -1,
                -1
            ],
            "type" : "VEC3"
        },
        {
            "bufferView" : 1,
            "componentType" : 5126,
            "count" : 2124,
            "type" : "VEC3"
        },
        {
            "bufferView" : 2,
            "componentType" : 5126,
            "count" : 2124,
            "type" : "VEC2"
        },
        {
            "bufferView" : 3,
            "componentType" : 5123,
            "count" : 10476,
            "type" : "SCALAR"
        },
        {
            "bufferView" : 4,
            "componentType" : 5126,
            "count" : 512,
            "max" : [
                0.7142857313156128,
                0.7142857313156128,
                1
            ],
            "min" : [
                -0.7142857313156128,
                -0.714285671710968,
                -1
            ],
            "type" : "VEC3"
        },
        {
            "bufferView" : 5,
            "componentType" : 5126,
            "count" : 512,
            "type" : "VEC3"
        },
        {
            "bufferView" : 6,
            "componentType" : 5126,
            "count" : 512,
            "type" : "VEC2"
        },
        {
            "bufferView" : 7,
            "componentType" : 5123,
            "count" : 2700,
            "type" : "SCALAR"
        },
        {
            "bufferView" : 8,
            "componentType" : 5126,
            "count" : 520,
            "max" : [
                1,
                0.7142857313156128,
                0.7142857313156128
            ],
            "min" : [
                -1,
                -0.7142857313156128,
                -0.7142857313156128
            ],
            "type" : "VEC3"
        },
        {
            "bufferView" : 9,
            "componentType" : 5126,
            "count" : 520,
            "type" : "VEC3"
        },
        {
            "bufferView" : 10,
            "componentType" : 5126,
            "count" : 520,
            "type" : "VEC2"
        },
        {
            "bufferView" : 11,
            "componentType" : 5123,
            "count" : 2700,
            "type" : "SCALAR"
        }
    ],
    "bufferViews" : [
        {
            "buffer" : 0,
            "byteLength" : 25488,
            "byteOffset" : 0
        },
        {
            "buffer" : 0,
            "byteLength" : 25488,
            "byteOffset" : 25488
        },
        {
            "buffer" : 0,
            "byteLength" : 16992,
            "byteOffset" : 50976
        },
        {
            "buffer" : 0,
            "byteLength" : 20952,
            "byteOffset" : 67968
        },
        {
            "buffer" : 0,
            "byteLength" : 6144,
            "byteOffset" : 88920
        },
        {
            "buffer" : 0,
            "byteLength" : 6144,
            "byteOffset" : 95064
        },
        {
            "buffer" : 0,
            "byteLength" : 4096,
            "byteOffset" : 101208
        },
        {
            "buffer" : 0,
            "byteLength" : 5400,
            "byteOffset" : 105304
        },
        {
            "buffer" : 0,
            "byteLength" : 6240,
            "byteOffset" : 110704
        },
        {
            "buffer" : 0,
            "byteLength" : 6240,
            "byteOffset" : 116944
        },
        {
            "buffer" : 0,
            "byteLength" : 4160,
            "byteOffset" : 123184
        },
        {
            "buffer" : 0,
            "byteLength" : 5400,
            "byteOffset" : 127344
        }
    ],
    "samplers" : [
        {
            "magFilter" : 9729,
            "minFilter" : 9987
        }
    ],
    "buffers" : [
        {
            "byteLength" : 132744,
            "uri" : "CUBE.bin"
        }
    ]
}
